# xmcd
#
# Track frame offsets:
#	150
#	13720
#	31057
#	43520
#	61945
#	74922
#	87792
#	103002
#	119262
#	131937
#	149935
#
# Disc length: 2209 seconds
#
# Revision: 0
# Processed by: cddbd v1.5.1PL2 Copyright (c) Steve Scherf et al.
# Submitted via: dBpowerAMP V4.0
#
DISCID=a4089f0b
DTITLE=Janis Leigh - This Little Girl
DYEAR=1900
DGENRE=Country
TTITLE0=This Little Girl
TTITLE1=Watch My Princess Play
TTITLE2=I Didn't Know
TTITLE3=Night By Night
TTITLE4=You Drive Me So Close To Crazy
TTITLE5=Am I Losing You
TTITLE6=Dance With A Stranger
TTITLE7=Love Doesn't Live Here Anymore
TTITLE8=Too Many Times Of Two Timin Me
TTITLE9=Sweetest Thing
TTITLE10=One More Christmas
EXTD=
EXTT0=
EXTT1=
EXTT2=
EXTT3=
EXTT4=
EXTT5=
EXTT6=
EXTT7=
EXTT8=
EXTT9=
EXTT10=
PLAYORDER=
